<svg width="60" height="60" viewBox="0 0 60 60" fill="none" xmlns="http://www.w3.org/2000/svg">
<path fill-rule="evenodd" clip-rule="evenodd" d="M30 0C13.4314 0 0 13.4314 0 30C0 46.5686 13.4314 60 30 60C46.5686 60 60 46.5686 60 30C60 13.4314 46.5686 0 30 0ZM18.6313 13H42.3687C44.3704 13 46 14.61 46 16.605V48L42.1914 44.675L40.0481 42.715L37.7805 40.6324L38.7195 43.87H18.6313C16.6296 43.87 15 42.26 15 40.265V16.605C15 14.61 16.6296 13 18.6313 13Z" fill="white"/>
<path fill-rule="evenodd" clip-rule="evenodd" d="M35.531 35.8551C35.531 35.8551 34.8933 35.1025 34.3618 34.4375C36.6824 33.79 37.5681 32.3551 37.5681 32.3551C36.8418 32.8275 36.1509 33.16 35.531 33.3875C34.6453 33.755 33.7949 34 32.9624 34.14C31.2617 34.455 29.7029 34.3675 28.3743 34.1225C27.3647 33.93 26.4966 33.65 25.7703 33.37C25.363 33.2125 24.9202 33.02 24.4773 32.775C24.4509 32.7577 24.4246 32.7446 24.3979 32.7315C24.3713 32.7183 24.3445 32.705 24.3179 32.6875C24.2825 32.67 24.2646 32.6525 24.2468 32.635C23.928 32.46 23.751 32.3375 23.751 32.3375C23.751 32.3375 24.6013 33.7375 26.8508 34.4025C26.3196 35.0675 25.6641 35.8551 25.6641 35.8551C21.7493 35.7325 20.2612 33.195 20.2612 33.195C20.2612 27.56 22.812 22.9925 22.812 22.9925C25.363 21.1025 27.7898 21.155 27.7898 21.155L27.967 21.3651C24.7783 22.275 23.3081 23.6576 23.3081 23.6576C23.3081 23.6576 23.6978 23.4475 24.3533 23.15C26.2488 22.3275 27.7544 22.1001 28.3743 22.0476L28.4131 22.0411C28.5029 22.026 28.5825 22.0125 28.6755 22.0125C29.7561 21.8725 30.9783 21.8375 32.2539 21.9775C33.9368 22.17 35.7434 22.66 37.5857 23.6576C37.5857 23.6576 36.1863 22.3451 33.175 21.435L33.4229 21.155C33.4229 21.155 35.8499 21.1025 38.4006 22.9925C38.4006 22.9925 40.9514 27.56 40.9514 33.195C40.9514 33.195 39.4458 35.7325 35.531 35.8551ZM27.7927 28C26.7908 28 26 28.9008 26 30C26 31.0991 26.8083 32 27.7927 32C28.7944 32 29.5852 31.0991 29.5852 30C29.6028 28.9008 28.7944 28 27.7927 28ZM32.4148 30C32.4148 28.9008 33.2056 28 34.2075 28C35.2092 28 36 28.9008 36 30C36 31.0991 35.2092 32 34.2075 32C33.2231 32 32.4148 31.0991 32.4148 30Z" fill="white"/>
</svg>
