<svg
  width="62"
  height="62"
  viewBox="0 0 62 62"
  fill="none"
  xmlns="http://www.w3.org/2000/svg"
>
<circle cx="31" cy="31" r="31" fill="#2C50F5" />
<mask
    id="mask0_487_3056"
    style="mask-type:alpha"
    maskUnits="userSpaceOnUse"
    x="0"
    y="0"
    width="62"
    height="62"
  >
<circle cx="31" cy="31" r="31" fill="#2C50F5" />
</mask>
<g mask="url(#mask0_487_3056)">
<path
      d="M3.47709 36.3196C3.58037 34.2565 6.19574 34.2867 6.8698 36.2393C8.88709 42.0829 12.7617 49.3263 20.2049 53.2241C22.8221 54.5929 25.0465 55.1149 28.1648 55.8433C41.3194 58.9194 52.6823 55.8815 56.2239 54.8874C58.7045 54.1934 59.2833 53.8569 68.5984 50.9968C72.2291 49.886 75.5828 48.8862 80.0354 49.0162C81.3333 49.0542 81.4359 50.7143 80.2085 51.138C77.9486 51.9182 75.7326 52.8258 73.571 53.8569C69.0273 56.0192 67.4691 57.4224 63.5233 59.382C58.8654 61.6744 53.9108 63.2961 48.8048 64.1998C44.06 65.0965 36.0526 66.6145 26.4491 63.9226C22.3761 62.7755 15.5872 60.7815 10.0737 54.5547C6.22658 50.2149 4.824 45.877 4.55449 45.009C3.57495 41.8548 3.34883 38.8817 3.47709 36.3196Z"
      fill="white"
    />
<path
      d="M14.2008 15.8425C14.9401 14.9884 16.0785 15.9354 15.6245 16.9697C14.2734 20.0476 13.1617 24.0684 13.4861 28.6899C13.6725 31.2932 14.2749 33.8491 15.2702 36.2588C18.6068 44.1527 25.9252 48.9935 25.4545 49.5555C25.4223 49.5957 25.3406 49.6263 25.1167 49.5555C22.6816 48.636 17.1454 46.1525 13.0363 40.2737C11.8254 38.5396 9.18731 34.7619 8.90262 29.6306C8.57469 23.7677 11.4779 18.9882 14.2008 15.8425Z"
      fill="#A5B5FF"
    />
<path
      d="M45.1273 30.6634C45.4879 30.5888 46.1085 23.6604 41.9388 19.8788C39.61 17.7758 36.7403 17.5024 35.7268 17.4087C35.1726 17.3571 30.9991 17.0359 27.3095 19.7966C22.0104 23.7579 22.0807 30.8029 22.1604 32.4758C22.5001 39.691 27.6018 44.3921 28.6988 45.4016C41.4567 57.1535 64.8582 49.034 68.5839 47.0477C68.7528 46.9578 69.3924 46.6079 70.292 46.2237C72.0097 45.4972 74.2094 44.8491 79.2009 44.503C80.1087 44.4384 81.1342 44.3821 82.2647 44.3476C83.3314 44.315 83.6222 42.9638 82.6069 42.6346C80.0425 41.803 77.8778 41.529 76.2667 41.4499C73.6305 41.3179 71.0493 41.641 65.8869 42.2719C63.7043 42.5415 62.8825 42.6906 61.1421 42.9315C50.99 44.3424 45.8087 45.0077 40.6273 43.0137C37.6286 41.8666 35.8179 40.3945 35.2334 39.8841C33.8308 38.6643 31.001 36.2019 30.4107 32.145C30.3082 31.4453 29.5756 25.836 33.2709 23.4195C35.6243 21.8786 38.3422 22.5955 38.661 22.6777C41.1549 23.3717 42.4702 25.3542 43.3205 26.6294C44.8407 28.9045 44.9394 30.7035 45.1273 30.6634Z"
      fill="white"
    />
<path
      d="M18.2356 25.8896C18.1046 24.4232 17.9623 20.6531 20.1981 16.8314C20.6687 16.0284 22.0334 13.7514 24.6108 12.1398C27.6432 10.2429 30.9689 10.1319 33.5594 10.5031C34.6248 10.6558 34.4629 11.965 33.401 12.1406C28.1514 13.0091 25.3909 15.0599 23.8193 16.948C20.756 20.6263 19.5357 26.8895 18.6076 26.66C18.3817 26.6103 18.283 26.1935 18.2356 25.8896Z"
      fill="#A5B5FF"
    />
</g>
</svg>
